<svg xmlns="http://www.w3.org/2000/svg" xmlns:xlink="http://www.w3.org/1999/xlink" width="500" zoomAndPan="magnify" viewBox="0 0 375 374.999991" height="500" preserveAspectRatio="xMidYMid meet" version="1.0"><defs><g/><clipPath id="f1a8991ac3"><path d="M 100.023438 122.910156 L 134.851562 122.910156 L 134.851562 244.601562 L 100.023438 244.601562 Z M 100.023438 122.910156 " clip-rule="nonzero"/></clipPath></defs><rect x="-37.5" width="450" fill="#ffffff" y="-37.499999" height="449.999989" fill-opacity="1"/><rect x="-37.5" width="450" fill="#2b2b2b" y="-37.499999" height="449.999989" fill-opacity="1"/><g fill="#e6e6dd" fill-opacity="1"><g transform="translate(138.863308, 245.279279)"><g><path d="M 5.421875 0 L 5.421875 -122.625 L 42.828125 -122.625 L 53.109375 -47.828125 L 63.375 -122.625 L 101.0625 -122.625 L 101.0625 0 L 78.65625 0 L 78.65625 -88.359375 L 64.515625 0 L 42.546875 0 L 27.546875 -88.359375 L 27.546875 0 Z M 5.421875 0 "/></g></g></g><g fill="#e6e6dd" fill-opacity="1"><g transform="translate(245.354105, 245.279279)"><g><path d="M 5.421875 0 L 5.421875 -122.625 L 54.53125 -122.625 L 54.53125 -98.921875 L 30.40625 -98.921875 L 30.40625 -75.09375 L 53.53125 -75.09375 L 53.53125 -51.96875 L 30.40625 -51.96875 L 30.40625 -23.84375 L 56.09375 -23.84375 L 56.09375 0 Z M 5.421875 0 "/></g></g></g><g clip-path="url(#f1a8991ac3)"><path fill="#e6e6dd" d="M 100.023438 122.910156 L 134.851562 122.910156 L 134.851562 244.539062 L 100.023438 244.539062 Z M 100.023438 122.910156 " fill-opacity="1" fill-rule="nonzero"/></g><g fill="#2b2b2b" fill-opacity="1"><g transform="translate(139.535532, 244.584124)"><g><path d="M -34.28125 -1.515625 L -34.28125 -10.578125 C -34.28125 -13.316406 -33.394531 -15.269531 -31.625 -16.4375 C -29.851562 -17.613281 -27.265625 -18.203125 -23.859375 -18.203125 C -20.453125 -18.203125 -17.882812 -17.679688 -16.15625 -16.640625 C -14.425781 -15.597656 -13.5625 -13.734375 -13.5625 -11.046875 L -13.5625 -8.265625 L 0 -8.265625 L 0 -1.515625 Z M -19.75 -8.65625 C -19.75 -9.476562 -19.898438 -10.082031 -20.203125 -10.46875 C -20.515625 -10.851562 -20.957031 -11.101562 -21.53125 -11.21875 C -22.101562 -11.34375 -22.921875 -11.40625 -23.984375 -11.40625 C -25.421875 -11.40625 -26.457031 -11.242188 -27.09375 -10.921875 C -27.726562 -10.609375 -28.046875 -9.972656 -28.046875 -9.015625 L -28.046875 -8.265625 L -19.75 -8.265625 Z M -19.75 -8.65625 "/></g></g></g><g fill="#2b2b2b" fill-opacity="1"><g transform="translate(139.535532, 225.750228)"><g><path d="M -34.28125 -1.515625 L -34.28125 -12.046875 C -34.28125 -13.722656 -33.898438 -15.019531 -33.140625 -15.9375 C -32.378906 -16.851562 -31.3125 -17.472656 -29.9375 -17.796875 C -28.570312 -18.117188 -26.828125 -18.28125 -24.703125 -18.28125 C -22.753906 -18.28125 -21.234375 -18.023438 -20.140625 -17.515625 C -19.054688 -17.015625 -18.300781 -16.140625 -17.875 -14.890625 C -17.664062 -15.921875 -17.144531 -16.671875 -16.3125 -17.140625 C -15.488281 -17.609375 -14.375 -17.84375 -12.96875 -17.84375 L 0 -17.765625 L 0 -11.046875 L -13.40625 -11.046875 C -14.363281 -11.046875 -14.972656 -10.859375 -15.234375 -10.484375 C -15.503906 -10.117188 -15.640625 -9.441406 -15.640625 -8.453125 L 0 -8.453125 L 0 -1.515625 Z M -21.59375 -10.140625 C -21.59375 -11.097656 -22.628906 -11.578125 -24.703125 -11.578125 C -25.609375 -11.578125 -26.285156 -11.535156 -26.734375 -11.453125 C -27.191406 -11.367188 -27.503906 -11.21875 -27.671875 -11 C -27.847656 -10.789062 -27.9375 -10.488281 -27.9375 -10.09375 L -27.9375 -8.5 L -21.59375 -8.5 Z M -21.59375 -10.140625 "/></g></g></g><g fill="#2b2b2b" fill-opacity="1"><g transform="translate(139.535532, 206.716817)"><g><path d="M 0.3125 -9.703125 C 0.3125 -6.929688 -0.53125 -4.828125 -2.21875 -3.390625 C -3.90625 -1.953125 -6.28125 -1.234375 -9.34375 -1.234375 L -25.65625 -1.234375 C -28.613281 -1.234375 -30.84375 -1.953125 -32.34375 -3.390625 C -33.84375 -4.828125 -34.59375 -6.929688 -34.59375 -9.703125 C -34.59375 -12.460938 -33.84375 -14.5625 -32.34375 -16 C -30.84375 -17.4375 -28.613281 -18.15625 -25.65625 -18.15625 L -9.34375 -18.15625 C -6.25 -18.15625 -3.863281 -17.4375 -2.1875 -16 C -0.519531 -14.5625 0.3125 -12.460938 0.3125 -9.703125 Z M -5.984375 -9.703125 C -5.984375 -10.304688 -6.25 -10.710938 -6.78125 -10.921875 C -7.3125 -11.140625 -8.054688 -11.25 -9.015625 -11.25 L -25.78125 -11.25 C -26.519531 -11.25 -27.125 -11.148438 -27.59375 -10.953125 C -28.0625 -10.753906 -28.296875 -10.347656 -28.296875 -9.734375 C -28.296875 -8.585938 -27.429688 -8.015625 -25.703125 -8.015625 L -8.984375 -8.015625 C -7.992188 -8.015625 -7.242188 -8.132812 -6.734375 -8.375 C -6.234375 -8.613281 -5.984375 -9.054688 -5.984375 -9.703125 Z M -5.984375 -9.703125 "/></g></g></g><g fill="#2b2b2b" fill-opacity="1"><g transform="translate(139.535532, 187.324289)"><g><path d="M 0 -1.515625 L -34.28125 -1.515625 L -34.28125 -11.96875 L -13.375 -14.84375 L -34.28125 -17.71875 L -34.28125 -28.25 L 0 -28.25 L 0 -21.984375 L -24.703125 -21.984375 L 0 -18.03125 L 0 -11.890625 L -24.703125 -7.703125 L 0 -7.703125 Z M 0 -1.515625 "/></g></g></g><g fill="#2b2b2b" fill-opacity="1"><g transform="translate(139.535532, 157.557156)"><g><path d="M -34.28125 -1.515625 L -34.28125 -10.578125 C -34.28125 -13.316406 -33.394531 -15.269531 -31.625 -16.4375 C -29.851562 -17.613281 -27.265625 -18.203125 -23.859375 -18.203125 C -20.453125 -18.203125 -17.882812 -17.679688 -16.15625 -16.640625 C -14.425781 -15.597656 -13.5625 -13.734375 -13.5625 -11.046875 L -13.5625 -8.265625 L 0 -8.265625 L 0 -1.515625 Z M -19.75 -8.65625 C -19.75 -9.476562 -19.898438 -10.082031 -20.203125 -10.46875 C -20.515625 -10.851562 -20.957031 -11.101562 -21.53125 -11.21875 C -22.101562 -11.34375 -22.921875 -11.40625 -23.984375 -11.40625 C -25.421875 -11.40625 -26.457031 -11.242188 -27.09375 -10.921875 C -27.726562 -10.609375 -28.046875 -9.972656 -28.046875 -9.015625 L -28.046875 -8.265625 L -19.75 -8.265625 Z M -19.75 -8.65625 "/></g></g></g><g fill="#2b2b2b" fill-opacity="1"><g transform="translate(139.535532, 138.72326)"><g><path d="M 0 -4.46875 L -27.6875 -4.46875 L -27.6875 -0.40625 L -34.28125 -0.40625 L -34.28125 -15.40625 L -27.6875 -15.40625 L -27.6875 -11.328125 L 0 -11.328125 Z M 0 -4.46875 "/></g></g></g></svg>